<svg width="33" height="33" viewBox="0 0 33 33" fill="none" xmlns="http://www.w3.org/2000/svg">
<path d="M22.1846 23.9498L17.2189 18.9841C17.0374 18.8026 16.8229 18.7696 16.7074 18.7696C16.592 18.7696 16.3775 18.8026 16.196 18.9841L11.2138 23.9663C10.6529 24.5272 9.77855 25.4346 6.85852 25.4346L12.979 31.5386C13.907 32.4654 15.1649 32.986 16.4765 32.986C17.788 32.986 19.0459 32.4654 19.9739 31.5386L26.1109 25.4181C24.6097 25.4181 23.3559 25.1211 22.1846 23.9498ZM11.2138 9.0197L16.196 14.0019C16.328 14.1339 16.526 14.2164 16.7074 14.2164C16.8889 14.2164 17.0869 14.1339 17.2189 14.0019L22.1516 9.06919C23.3229 7.84839 24.6592 7.56793 26.1604 7.56793L20.0234 1.44741C19.0954 0.520588 17.8375 0 16.526 0C15.2144 0 13.9565 0.520588 13.0285 1.44741L6.90801 7.55143C9.81155 7.55143 10.7024 8.50828 11.2138 9.0197Z" fill="white"/>
<path d="M31.5221 12.9461L27.8102 9.21769H25.7315C24.8407 9.21769 23.9498 9.58063 23.3394 10.224L18.3902 15.1732C17.9283 15.6352 17.3179 15.8661 16.7075 15.8661C16.0789 15.8573 15.4773 15.6095 15.0247 15.1732L10.0425 10.1745C9.41564 9.54763 8.55777 9.18469 7.65042 9.18469H5.22531L1.44741 12.9791C0.520588 13.9071 0 15.165 0 16.4765C0 17.7881 0.520588 19.046 1.44741 19.974L5.22531 23.7683H7.66692C8.55777 23.7683 9.41564 23.4054 10.059 22.7785L15.0412 17.7963C15.5032 17.3344 16.1136 17.1034 16.724 17.1034C17.3344 17.1034 17.9448 17.3344 18.4067 17.7963L23.3724 22.762C23.9993 23.3889 24.8572 23.7519 25.7645 23.7519H27.8432L31.5551 20.0234C32.4866 19.0792 33.0061 17.8044 32.9999 16.478C32.9938 15.1516 32.4624 13.8816 31.5221 12.9461Z" fill="white"/>
</svg>
