<?xml version="1.0" encoding="UTF-8"?>
<!DOCTYPE svg PUBLIC "-//W3C//DTD SVG 1.1//EN" "http://www.w3.org/Graphics/SVG/1.1/DTD/svg11.dtd">
<!-- Creator: CorelDRAW -->
<svg xmlns="http://www.w3.org/2000/svg" xml:space="preserve" width="297mm" height="210mm" version="1.1" style="shape-rendering:geometricPrecision; text-rendering:geometricPrecision; image-rendering:optimizeQuality; fill-rule:evenodd; clip-rule:evenodd"
viewBox="0 0 29700 21000"
 xmlns:xlink="http://www.w3.org/1999/xlink"
 xmlns:xodm="http://www.corel.com/coreldraw/odm/2003">
 <defs>
  <style type="text/css">
   <![CDATA[
    .fil0 {fill:#ffffff}
    .fil1 {fill:#ffffff;fill-rule:nonzero}
   ]]>
  </style>
 </defs>
 <g id="Camada_x0020_1">
  <metadata id="CorelCorpID_0Corel-Layer"/>
  <g id="_105553201020928">
   <path class="fil0" d="M7951.81 9437.45l0.04 -6.39c-16.52,-8.99 -27.79,-26.51 -27.79,-46.55l0 -451.14c0,-29.11 23.82,-52.93 52.93,-52.93l1719.25 0c178.64,0 362.54,5.4 543.18,5.4 47.57,0 88.18,-31.31 102.24,-74.34l5.27 -3.57 0 -29.6 0 -920.14 0 -0.76c0,-59.13 -48.37,-107.51 -107.51,-107.51l-2316.77 0c-8.89,0 -16.38,6.28 -18.25,14.64l-0.44 0 0 -11.56c0,-6.65 -83.85,-3.08 -93.68,-3.08 -51.53,0 -93.68,42.15 -93.68,93.68 0,169.43 -3.4,333.27 0,507l0 142.76c-1.41,42 -4.61,73.56 -10.64,88.07l-29.37 30.83c-46.24,24.47 -70.73,21.82 -125.36,21.77 -73.36,-0.06 -554.19,-8.4 -592.84,2.42 -1.68,0.47 -3.27,1.75 -4.96,1.74 -113.07,-1.17 -97.79,18.55 -97.79,89.48l0 3049.86c28.45,11.48 1.34,-2.37 15.89,17.55 126.2,170.46 282.48,303.82 432.12,464.11 6.31,6.48 12.73,13.92 20.59,19.54 1.16,0.83 2.83,1.88 4.05,2.65 1.22,0.79 2.94,1.73 4.22,2.46l22.41 11.03c2.15,1.1 8.92,4.85 13.1,6.97l542.97 1.71c3.2,2.57 7.26,4.11 11.66,4.11l1289.96 0 1562.37 4.93c39.78,0 94.55,7.99 129.68,-4.09l3.48 -1.87c52.21,-7.25 92.74,-52.36 92.74,-106.48l0 -764.48c3.58,-12.5 5.24,-27.51 0,-56.76l0 -99.66c0,-59.14 -48.38,-107.52 -107.51,-107.52 -957.72,0 -1913.45,6.84 -2871.86,6.84 -32.19,0 -58.52,-26.33 -58.52,-58.51l0 -498.72c0,-32.19 26.33,-58.52 58.52,-58.52l1635 0c36.11,-17.38 61.19,-54.38 61.19,-96.96l0 -920.9c0,-59.13 -48.38,-107.51 -107.51,-107.51l-1633.2 0 -25.18 0z"/>
   <g>
    <path class="fil0" d="M19563.4 11637.07l0 535.07c0,30.85 37.6,20.06 113.71,20.06 41.81,0 26.75,-104.83 26.75,-147.14 0,-57.96 0,-115.93 0,-173.9 25.33,18.56 147.14,249.32 182.87,298.69 25.32,34.99 63.61,22.35 144.86,22.35 12.95,-55.62 12.95,-519.56 0,-575.19l-127.08 0c-18.57,79.7 -6.69,232.54 -6.69,327.73 -44.75,-51.49 -179.22,-327.73 -214.03,-327.73 -79.3,0 -120.39,-11.34 -120.39,20.06z"/>
    <path class="fil0" d="M15951.72 11637.07l0 535.07c0,30.85 37.6,20.06 113.71,20.06 33.06,0 20.06,-89.81 20.06,-153.83 0,-57.96 0,-115.93 0,-173.89 24,17.58 154.2,250.45 183.1,298.46 24.35,40.46 44.05,29.26 131.25,29.26 15.66,0 26.75,-11.1 26.75,-26.75l0 -521.69c0,-38.54 -57.74,-26.75 -120.39,-26.75 -33.06,0 -20.06,89.81 -20.06,153.83 0,57.96 0,115.93 0,173.9 -18.09,-13.26 -38.34,-58.51 -52.18,-81.59l-125.39 -209.02c-27.36,-47.68 -11.9,-37.12 -136.78,-37.12 -15.41,0 -20.07,4.65 -20.07,20.06z"/>
    <path class="fil0" d="M12152.77 11891.23l-100.32 0 0 -153.83c136.15,0 173.9,-12.39 173.9,93.63 0,41.06 -31.84,60.2 -73.58,60.2zm-240.77 -254.16l0 535.07c0,27.07 24.71,20.9 53.11,20.45 26.92,-0.42 53.72,-0.39 80.65,-0.39 13.08,-56.13 6.69,-122.17 6.69,-180.58 76.37,0 59.59,-4.36 155.09,139.2 35.98,54.09 35.3,41.38 145.88,41.38 50.23,0 -10.43,-66.79 -34.45,-99.31 -17.88,-24.19 -63.52,-79.69 -65.87,-108.02 155.84,-12.97 188.86,-367.86 -80.26,-367.86l-240.78 0c-15.41,0 -20.06,4.65 -20.06,20.06z"/>
    <path class="fil0" d="M16841.27 12065.13l-73.57 0 0 -321.04c163.62,0 187.27,11.75 187.27,193.96 0,75.44 -39.73,127.08 -113.7,127.08zm-214.03 -428.06l0 535.07c0,15.41 4.65,20.06 20.07,20.06 136.18,0 302.97,20.29 386.5,-68.3 88.44,-93.8 94.3,-328.48 6.3,-431.52 -83.42,-97.68 -259.11,-75.37 -392.8,-75.37 -15.42,0 -20.07,4.65 -20.07,20.06z"/>
    <path class="fil0" d="M21034.83 11917.98c0,-254.45 171.23,-191.27 198.2,-151.38 35.69,52.79 74.49,311.9 -84.5,311.9 -83.37,0 -113.7,-76.8 -113.7,-160.52zm-147.14 -13.37c0,251.88 178.98,345.65 368.86,281.91 192.62,-64.67 186.34,-397.89 84.44,-507.82 -113.69,-122.66 -453.3,-130.36 -453.3,225.91z"/>
    <path class="fil0" d="M19121.97 12078.5c-125.96,0 -113.69,-129.9 -113.69,-214.02 0,-175.81 227.4,-194.39 227.4,26.75 0,84.4 -11.99,187.27 -113.71,187.27zm-260.84 -200.65c0,98.29 3.37,182.52 68.38,252.66 21.93,23.65 48.6,43.06 79.49,54.28 72.62,26.39 158.21,25.83 228.76,-3.88 41.52,-17.48 51.22,-30.94 80.05,-60.41 87.63,-89.57 82.76,-343.86 3.34,-428.44 -162.88,-173.45 -460.02,-91.23 -460.02,185.79z"/>
    <path class="fil0" d="M17530.16 12078.5c-156.19,0 -126.31,-232.79 -100.61,-287.88 41.03,-87.95 212.38,-106.62 212.38,113.99 0,85.89 -20.47,173.89 -111.77,173.89zm-267.53 -173.89c0,30.3 10.06,95.36 17.59,122.87 19.18,70.15 61.94,125.85 127.47,153.43 72.09,30.34 149.64,30.5 223.8,5.61 146.93,-49.33 152.83,-200.71 152.83,-322.04 0,-336.35 -521.69,-378.97 -521.69,40.13z"/>
    <path class="fil0" d="M20238.92 11637.07l0 535.07c0,31.4 41.09,20.06 120.39,20.06 15.41,0 20.06,-4.65 20.06,-20.06l0 -207.34 187.28 0 0 207.34c0,31.4 41.09,20.06 120.39,20.06 15.41,0 20.06,-4.65 20.06,-20.06l0 -535.07c0,-31.4 -41.09,-20.06 -120.39,-20.06 -15.41,0 -20.06,4.65 -20.06,20.06l0 200.65 -187.28 0 0 -200.65c0,-31.4 -41.08,-20.06 -120.38,-20.06 -15.42,0 -20.07,4.65 -20.07,20.06z"/>
    <path class="fil0" d="M13349.98 11757.47c0.89,1.41 1.85,2.12 2.15,4.53l7.46 19.3c2.78,8.35 5.29,17.52 7.9,25.54 6.59,20.25 10.97,31.13 16.78,50.1 10.09,32.97 24.92,74.96 32.59,107.86l-127.08 0c1.91,-22.9 20.84,-78.99 29.19,-104.57 9.72,-29.75 28.57,-73.44 31.01,-102.76zm-267.53 421.36c0,22.42 78.58,13.37 120.39,13.37 29.45,0 51.12,-78.36 53.5,-107.01l187.27 0c7.84,16.33 15.62,37.52 22.47,57.79 20.72,61.3 13.99,49.22 138.05,49.22 46.56,0 -0.02,-76.54 -25.9,-154.68 -16.76,-50.57 -32.8,-93.79 -50.25,-143.71 -17.69,-50.57 -29.72,-96.39 -48.96,-144.99 -61.67,-155.78 -0.42,-131.81 -189.24,-131.81 -30.2,0 -98.78,232.85 -111.17,270.06 -14.86,44.57 -96.16,265.24 -96.16,291.76z"/>
    <path class="fil0" d="M15523.67 11764.15c0.56,24.77 50.16,179.73 60.2,200.65l-133.77 0 49.29 -151.37c8.05,-25.18 7.14,-36.72 24.28,-49.28zm-274.22 428.05l133.77 0c16.25,-30.71 31.3,-69.11 40.13,-107.01l187.27 0c6.3,27.05 28.32,84.7 40.13,107.01l133.77 0c9.54,-40.96 -18.7,-85.73 -37.62,-142.96 -17.48,-52.89 -31.32,-98.92 -51.29,-149.36l-77.39 -223.59c-23.65,-73.7 -12.31,-59.28 -161.43,-59.28 -32.52,0 -53.62,97.39 -64.36,129.6 -18.16,54.46 -33.89,94.79 -51.87,148.78 -17.82,53.55 -35.09,98.06 -51.88,148.77 -12.26,37.05 -46.19,115.2 -39.23,148.04z"/>
    <path class="fil0" d="M12554.07 11637.07l0 535.07c0,15.41 4.65,20.06 20.07,20.06l341.1 0c29.13,0 20.06,-28.34 20.06,-93.64 0,-15.65 -11.09,-26.74 -26.75,-26.74l-214.03 0 0 -113.71 200.66 0c43.2,0 26.09,-87.8 20.06,-113.7l-220.72 0 0 -107.01 214.03 0c38.38,0 38.38,-120.39 0,-120.39l-334.41 0c-15.42,0 -20.07,4.65 -20.07,20.06z"/>
    <path class="fil0" d="M14674.26 11643.76c0,127.4 -25.43,100.33 247.47,100.33l-233.37 308.38c-26.8,35.74 -36.83,139.73 5.97,139.73l381.23 0c25.8,0 20.83,-21.31 20.64,-46.24 -0.19,-24.72 -0.58,-49.36 -0.58,-74.14 -69.92,-16.3 -172.74,-6.69 -254.15,-6.69l189.18 -252.25c67.63,-90.11 58.29,-54.54 58.29,-175.81 0,-15.41 -4.66,-20.06 -20.07,-20.06l-367.86 0c-15.65,0 -26.75,11.1 -26.75,26.75z"/>
    <path class="fil0" d="M21844.11 12031.68c0,89.99 -229.08,26.76 -234.09,26.76 -25.09,0 -42.05,66.48 -46.82,86.94 44.02,65.75 276.48,81.97 371.99,10.82 70.38,-52.42 69.05,-172.13 27.71,-223.24 -14.82,-18.33 -52.76,-46.24 -76.19,-57.58 -32.68,-15.81 -64.98,-23.82 -96.1,-37.66 -134.91,-60.01 -55.03,-107.01 -20.07,-107.01l73.57 0c40.86,0 51.1,13.38 86.95,13.38 13.74,0 38.7,-76.48 40.13,-93.64 -140.89,-94.34 -464.27,-55.83 -389.12,181.78 43.88,138.75 262.04,110.39 262.04,199.45z"/>
    <path class="fil0" d="M18285.94 11764.15c0,220.74 274.22,169.2 274.22,267.53 0,67.97 -155.62,48.27 -191.36,37.41 -3.46,-1.06 -23.07,-7.87 -25.66,-8.62 -4.45,-1.29 -8.09,-2.59 -13.35,-3.1 -21.67,-2.14 -28.03,11.76 -36.6,35.08 -20.02,54.49 -34.81,83.46 95.59,103.92 57.4,9.01 93.04,6.84 144.15,2.09 189.54,-17.63 201.75,-203.45 132.83,-272.38 -80.79,-80.82 -146.75,-67.91 -210.19,-110.89 -42.51,-28.79 -30.39,-84.48 24.33,-84.48l73.57 0c40.87,0 51.1,13.38 86.95,13.38 16.13,0 40.13,-66.81 40.13,-86.95 0,-39.22 -225.7,-84.61 -326.75,-19.09 -40.45,26.23 -67.86,60.89 -67.86,126.1z"/>
    <path class="fil0" d="M13784.72 11637.07l0 535.07c0,15.41 4.65,20.06 20.06,20.06l327.73 0c25.8,0 20.83,-21.31 20.64,-46.24 -0.19,-24.72 -0.58,-49.36 -0.58,-74.14 -60.79,-14.17 -161.11,-6.69 -227.4,-6.69l0 -428.06c0,-31.4 -41.09,-20.06 -120.39,-20.06 -15.41,0 -20.06,4.65 -20.06,20.06z"/>
    <path class="fil0" d="M14333.16 11643.76l0 521.69c0,27.95 24.04,27.39 53,27.25 29.14,-0.13 58.27,-0.5 87.45,-0.5 12.96,-55.62 12.96,-519.56 0,-575.19 -63.85,0 -140.45,-12.95 -140.45,26.75z"/>
   </g>
   <g>
    <path class="fil1" d="M15841.18 9702.38c0.49,-52.75 -18.11,-98.05 -55.8,-135.89 -37.68,-37.85 -88.64,-56.77 -152.86,-56.77 -68.8,0 -118.31,18.35 -148.52,55.05 -30.21,36.69 -45.32,82.56 -45.34,137.61l9.07 357.79c-0.02,55.04 18.7,100.91 56.15,137.61 37.45,36.7 85.99,55.04 145.62,55.04 59.63,0 106.85,-18.34 141.65,-55.04 34.79,-36.7 52.2,-82.57 52.21,-137.61l-2.18 -357.79zm492.08 1042.41c0.26,89.44 -9.66,168.57 -29.75,237.38 -20.09,68.8 -53.79,127.28 -101.11,175.45 -47.32,48.16 -109.64,84.86 -186.95,110.09 -77.32,25.23 -173.32,37.84 -287.99,37.84 -57.35,0 -131.93,-5.73 -223.76,-17.2 -91.83,-11.47 -182.85,-35.55 -273.05,-72.25 -19.78,-6.88 -41.54,-17.77 -65.29,-32.68 -23.74,-14.91 -33.03,-43 -27.85,-84.29l59.99 -240.82c8.89,-34.4 24.31,-56.76 46.25,-67.08 21.93,-10.32 54.06,-7.46 96.39,8.6 57.53,22.93 116.72,40.13 177.59,51.6 60.87,11.47 116.51,14.34 166.92,8.6 50.42,-5.73 91.8,-21.79 124.15,-48.16 32.36,-26.38 48.79,-65.94 49.28,-118.69l2.89 -68.8c1.72,-13.77 -4.08,-22.37 -17.41,-25.81 -13.33,-3.44 -30.94,2.87 -52.83,18.92 -15.96,11.47 -44.08,22.37 -84.37,32.69 -40.28,10.32 -74.18,15.48 -101.7,15.48 -94.04,0 -179.25,-15.48 -255.65,-46.44 -76.39,-30.97 -142.56,-73.4 -198.49,-127.3 -55.94,-53.89 -98.99,-117.54 -129.17,-190.93 -30.17,-73.39 -46.3,-153.67 -48.38,-240.82l-12.51 -357.79c-0.55,-68.81 4.84,-139.33 16.19,-211.58 11.35,-72.24 35.93,-138.76 73.75,-199.54 37.81,-60.77 91.76,-110.08 161.88,-147.93 70.1,-37.84 162.49,-56.76 277.17,-56.76 34.4,0 77.45,5.73 129.15,17.2 51.7,11.47 100.14,32.11 145.33,61.92 12.9,6.88 22.24,13.19 28.02,18.93 5.78,5.73 12.11,8.6 18.99,8.6 11.47,0 20.6,-5.74 27.39,-17.2 8.12,-16.06 16.15,-29.82 24.09,-41.29 7.93,-11.46 22.22,-17.2 42.86,-17.2l323.39 0c25.23,0 44.89,6.31 58.98,18.92 14.09,12.62 21.23,30.39 21.42,53.32l24.19 1555.02z"/>
    <path class="fil1" d="M21972.65 9117.53c43.58,0 65.37,24.08 65.37,72.24l0 227.07c0,48.16 -21.79,72.24 -65.37,72.24l-254.58 0c-18.35,0 -30.39,3.44 -36.12,10.32 -5.74,6.88 -8.6,16.06 -8.6,27.52l0 608.93c0,45.87 10.32,77.98 30.96,96.33 20.64,18.35 52.75,27.53 96.33,27.53 4.58,0 13.19,-0.58 25.8,-1.72 12.61,-1.15 26.37,-2.3 41.28,-3.45 14.91,-1.14 28.67,-2.29 41.28,-3.44 12.62,-1.14 22.37,-1.72 29.25,-1.72 38.99,-4.58 65.36,-4.58 79.13,0 13.76,4.59 25.22,27.53 34.4,68.81l41.28 220.18c9.18,43.57 4.01,72.24 -15.48,86.01 -19.49,13.76 -38.42,22.93 -56.76,27.51 -45.88,11.47 -95.76,19.5 -149.66,24.09 -53.89,4.59 -107.22,6.88 -159.97,6.88 -103.21,0 -187.5,-12.62 -252.86,-37.84 -65.37,-25.23 -116.97,-59.63 -154.81,-103.21 -37.85,-43.58 -64.22,-94.03 -79.13,-151.38 -14.91,-57.33 -22.36,-118.11 -22.36,-182.33l0 -677.74c0,-27.52 -14.91,-41.28 -44.72,-41.28l-120.41 0c-45.88,0 -68.81,-24.08 -68.81,-72.24l0 -227.07c0,-48.16 22.93,-72.24 68.81,-72.24l110.08 0c18.35,0 31.54,-5.73 39.57,-17.2 8.03,-11.47 12.04,-25.23 12.04,-41.28l0 -230.5c0,-50.46 25.23,-81.42 75.69,-92.89l302.74 -65.37c6.88,-2.29 17.2,-3.44 30.96,-3.44 25.23,0 42.43,6.88 51.61,20.64 9.17,13.77 13.76,29.82 13.76,48.17l0 323.39c0,11.46 2.86,24.08 8.6,37.84 5.73,13.76 24.66,20.64 56.77,20.64l233.93 0z"/>
    <path class="fil1" d="M20398.83 9692.06c0,-59.63 -18.35,-106.08 -55.05,-139.33 -36.69,-33.26 -87.15,-49.89 -151.37,-49.89 -61.92,0 -110.66,18.35 -146.21,55.05 -35.55,36.69 -53.32,83.71 -53.32,141.05l0 381.87c0,57.34 18.34,102.63 55.04,135.89 36.69,33.26 86.01,49.88 147.93,49.88 61.93,0 111.24,-16.05 147.93,-48.16 36.7,-32.11 55.05,-77.98 55.05,-137.61l0 -388.75zm478.2 392.19c0,98.62 -17.21,185.2 -51.61,259.74 -34.4,74.54 -82.57,137.04 -144.49,187.49 -61.93,50.46 -134.17,88.31 -216.74,113.54 -82.57,25.22 -172.01,37.84 -268.34,37.84 -100.91,0 -193.23,-13.76 -276.94,-41.28 -83.71,-27.53 -155.39,-67.09 -215.02,-118.69 -59.63,-51.61 -105.5,-112.39 -137.61,-182.34 -32.11,-69.95 -48.17,-148.5 -48.17,-235.66l0 -430.03c0,-84.86 16.06,-163.99 48.17,-237.38 32.11,-73.39 77.98,-135.89 137.61,-187.5 59.63,-51.6 130.73,-92.31 213.3,-122.13 82.56,-29.81 175.45,-44.72 278.66,-44.72 100.91,0 193.23,12.61 276.95,37.84 83.71,25.23 155.38,62.5 215.01,111.81 59.63,49.31 106.07,111.23 139.33,185.78 33.26,74.53 49.89,159.97 49.89,256.3l0 409.39z"/>
    <path class="fil1" d="M19335.25 10221.86c20.64,0 36.69,5.16 48.16,15.48 11.47,10.32 17.2,29.24 17.2,56.77l0 285.54c0,55.04 -21.79,82.57 -65.36,82.57l-1214.42 0c-55.05,0 -82.57,-27.53 -82.57,-82.57l0 -1978.16c0,-25.23 7.46,-42.43 22.36,-51.61 14.91,-9.17 34.98,-13.76 60.21,-13.76l323.38 0c25.23,0 45.3,4.02 60.21,12.04 14.9,8.03 22.36,25.81 22.36,53.33l0 1541.25c0,25.22 2.87,44.72 8.6,58.48 5.73,13.76 24.66,20.64 56.76,20.64l743.11 0z"/>
    <path class="fil1" d="M17365.66 9592.29c-13.76,-25.23 -37.27,-48.74 -70.53,-70.52 -33.25,-21.8 -75.11,-32.69 -125.56,-32.69 -45.88,0 -84.87,11.47 -116.98,34.4 -32.1,22.94 -53.89,48.17 -65.36,75.69 -9.17,18.35 -13.76,35.55 -13.76,51.6 0,27.53 21.79,41.29 65.36,41.29l288.99 0c34.4,0 51.6,-16.06 51.6,-48.17 0,-16.05 -4.58,-33.25 -13.76,-51.6zm478.2 264.9c0,36.7 -10.32,65.94 -30.96,87.73 -20.64,21.79 -50.46,32.68 -89.45,32.68l-684.62 0c-29.81,0 -49.3,6.31 -58.48,18.92 -9.18,12.62 -13.76,25.81 -13.76,39.57l0 37.84c0,52.75 18.92,98.05 56.76,135.89 37.85,37.84 86.59,56.76 146.22,56.76 66.51,0 120.98,-16.62 163.41,-49.88 42.43,-33.26 76.26,-63.65 101.49,-91.17 9.17,-9.17 17.2,-18.34 24.08,-27.52 6.88,-9.17 16.06,-13.76 27.52,-13.76 11.47,0 26.38,5.74 44.73,17.2l206.41 130.73c18.35,11.47 34.4,23.51 48.17,36.12 13.76,12.62 20.64,28.1 20.64,46.45 0,13.76 -4.59,28.67 -13.76,44.72 -59.63,107.8 -142.2,188.64 -247.7,242.54 -105.5,53.9 -230.5,80.85 -374.99,80.85 -103.21,0 -196.67,-14.34 -280.39,-43 -83.71,-28.67 -155.38,-69.96 -215.02,-123.85 -59.63,-53.9 -105.5,-118.12 -137.61,-192.66 -32.11,-74.54 -48.16,-157.68 -48.16,-249.42l0 -381.87c0,-91.74 16.63,-174.89 49.88,-249.42 33.26,-74.54 79.7,-138.19 139.33,-190.94 59.64,-52.75 131.31,-94.03 215.02,-123.85 83.72,-29.81 176.03,-44.72 276.95,-44.72 204.12,0 367.53,53.89 490.23,161.69 122.71,107.8 184.06,256.88 184.06,447.24l0 165.13z"/>
    <path class="fil1" d="M14808.84 10589.97c0,48.17 -24.08,72.25 -72.25,72.25l-323.38 0c-25.23,0 -45.3,-6.31 -60.21,-18.92 -14.9,-12.62 -22.36,-30.39 -22.36,-53.33l0 -894.47c0,-52.75 -14.33,-97.48 -43,-134.17 -28.67,-36.7 -80.85,-55.05 -156.53,-55.05 -59.64,0 -107.8,18.35 -144.5,55.05 -36.69,36.69 -55.04,81.42 -55.04,134.17l0 894.47c0,48.17 -26.38,72.25 -79.13,72.25l-319.94 0c-50.46,0 -75.69,-24.08 -75.69,-72.25l0 -1403.63c0,-48.17 25.23,-72.25 75.69,-72.25l337.15 0c41.28,0 61.92,24.08 61.92,72.25 0,13.76 4.58,20.64 13.76,20.64 4.59,0 11.47,-4.59 20.64,-13.76 32.11,-25.23 77.41,-48.74 135.89,-70.53 58.48,-21.79 116.4,-32.68 173.74,-32.68 91.74,0 171.44,15.48 239.1,46.44 67.65,30.96 123.27,72.82 166.85,125.57 43.58,52.76 75.69,115.82 96.33,189.22 20.64,73.39 30.96,152.52 30.96,237.38l0 901.35z"/>
    <path class="fil1" d="M13142.38 10221.86c45.87,0 68.8,26.38 68.8,79.13l0 278.66c0,55.04 -22.93,82.57 -68.8,82.57l-1210.98 0c-55.05,0 -82.57,-27.53 -82.57,-82.57l0 -1960.96c0,-55.04 27.52,-82.57 82.57,-82.57l1183.45 0c45.88,0 68.81,25.23 68.81,75.69l0 278.66c0,55.05 -22.93,82.57 -68.81,82.57l-694.93 0c-34.4,0 -56.77,5.16 -67.09,15.48 -10.32,10.32 -15.48,26.95 -15.48,49.89l0 233.93c0,32.11 5.73,54.47 17.2,67.09 11.47,12.61 34.41,18.92 68.81,18.92l571.08 0c27.53,0 46.45,7.46 56.77,22.36 10.32,14.91 15.48,34.98 15.48,60.21l0 271.78c0,25.23 -5.16,45.29 -15.48,60.2 -10.32,14.91 -29.24,22.37 -56.77,22.37l-581.4 0c-32.11,0 -52.75,5.73 -61.93,17.2 -9.17,11.46 -13.76,29.81 -13.76,55.04l0 278.67c0,32.11 7.45,52.75 22.36,61.92 14.91,9.17 40.71,13.76 77.41,13.76l705.26 0z"/>
   </g>
  </g>
 </g>
</svg>
