<?xml version="1.0" encoding="UTF-8"?>
<!DOCTYPE svg PUBLIC "-//W3C//DTD SVG 1.1//EN" "http://www.w3.org/Graphics/SVG/1.1/DTD/svg11.dtd">
<!-- Creator: CorelDRAW -->
<svg xmlns="http://www.w3.org/2000/svg" xml:space="preserve" width="296.686mm" height="209.903mm" version="1.1" style="shape-rendering:geometricPrecision; text-rendering:geometricPrecision; image-rendering:optimizeQuality; fill-rule:evenodd; clip-rule:evenodd"
viewBox="0 0 29668.6 20990.28"
 xmlns:xlink="http://www.w3.org/1999/xlink"
 xmlns:xodm="http://www.corel.com/coreldraw/odm/2003">
 <defs>
  <style type="text/css">
   <![CDATA[
    .fil0 {fill:#ffffff;fill-rule:nonzero}
    .fil1 {fill:#ffffff;fill-rule:nonzero}
   ]]>
  </style>
 </defs>
 <g id="Layer_x0020_1">
  <metadata id="CorelCorpID_0Corel-Layer"/>
  <path class="fil0" d="M11407.46 9912.55l-432.1 0 0 233.39 407.92 0 0 308.05 -407.92 0 0 240.76 432.1 0 0 308.04 -795.34 0 0 -1398.29 795.34 0 0 308.05zm230.25 138.77l335.38 0 0 120.91c45.73,-55.72 92.52,-93.05 139.3,-112.5 46.79,-19.45 101.98,-28.91 165.06,-28.91 66.77,0 123.54,11.04 171.37,32.59 47.84,21.56 88.32,52.57 121.43,92 27.34,32.06 45.74,67.81 55.73,107.23 9.98,39.43 14.71,84.64 14.71,135.63l0 604.52 -335.37 0 0 -480.46c0,-46.79 -3.16,-85.16 -9.99,-114.08 -6.84,-28.91 -18.93,-52.04 -36.27,-69.38 -15.25,-14.72 -32.07,-25.24 -50.47,-31.54 -18.4,-6.31 -38.37,-9.47 -59.4,-9.47 -56.77,0 -100.4,16.83 -130.37,50.99 -30.48,34.17 -45.73,82.53 -45.73,145.62l0 508.32 -335.38 0 0 -951.47zm1542.32 471.01c0,31.01 5.78,59.4 16.82,86.21 11.04,26.81 26.29,49.93 45.73,69.38 18.93,19.98 41.53,35.75 68.34,46.79 26.81,11.04 55.2,16.82 86.21,16.82 29.97,0 57.83,-5.78 84.64,-16.82 26.8,-11.04 49.41,-26.81 68.86,-46.79 18.92,-19.45 34.17,-42.57 46.26,-69.38 11.56,-26.81 17.35,-54.67 17.35,-84.11 0,-31.02 -5.79,-59.4 -17.35,-85.69 -12.09,-25.75 -27.86,-48.88 -47.31,-68.33 -19.98,-19.45 -43.11,-35.22 -69.92,-46.26 -26.81,-11.04 -54.14,-16.82 -82.53,-16.82 -29.96,0 -57.82,5.78 -83.58,17.34 -25.76,12.09 -48.89,27.34 -68.34,46.26 -19.97,19.45 -35.74,42.06 -47.31,67.81 -12.09,26.29 -17.87,54.15 -17.87,83.59zm753.29 -471.01l0 886.81c0,53.1 -3.16,100.41 -9.46,142.46 -6.31,42.05 -14.72,79.38 -25.76,111.44 -15.25,40.48 -38.38,78.85 -69.92,114.07 -31.54,35.22 -69.39,65.71 -114.07,92 -44.68,25.75 -94.62,46.25 -150.87,60.97 -56.24,14.72 -117.22,22.08 -182.93,22.08 -74.12,0 -141.93,-9.46 -203.43,-27.86 -62.03,-18.4 -116.18,-44.16 -162.44,-76.75 -46.78,-33.11 -84.63,-71.49 -114.07,-115.12 -29.96,-43.63 -49.41,-91.47 -59.4,-143.51l377.96 0c23.65,63.08 77.27,94.62 159.8,94.62 70.44,0 124.59,-19.97 162.44,-59.4 37.32,-39.42 56.24,-94.62 56.24,-165.06l0 -90.94c-24.7,23.66 -48.36,43.11 -70.96,58.35 -23.13,15.24 -46.26,27.86 -69.92,37.85 -23.65,9.99 -48.36,17.35 -74.12,21.55 -25.75,4.21 -54.14,6.31 -85.16,6.31 -67.81,0 -130.36,-11.57 -187.13,-35.22 -57.3,-23.66 -106.19,-56.25 -147.72,-98.3 -41.53,-42.06 -73.59,-92.52 -96.2,-151.4 -23.13,-58.35 -34.69,-123.53 -34.69,-195.02 0,-73.07 12.62,-140.88 37.32,-203.44 24.71,-62.55 58.35,-116.69 100.93,-162.95 42.58,-46.26 93.57,-82.53 152.45,-109.34 58.35,-26.81 122.48,-39.95 191.34,-39.95 112.49,0 207.12,42.05 283.86,126.16l0 -100.41 335.91 0zm945.86 337.49c-11.04,-46.79 -34.17,-84.64 -68.87,-113.02 -34.69,-28.39 -76.74,-42.58 -126.16,-42.58 -52.04,0 -94.09,13.66 -126.69,40.47 -33.11,27.34 -53.61,65.71 -62.55,115.13l384.27 0zm-393.21 195.02c0,144.56 67.82,216.58 203.96,216.58 73.07,0 127.74,-29.44 165.07,-88.84l324.33 0c-65.7,217.63 -229.19,326.44 -491.5,326.44 -80.43,0 -153.49,-12.09 -220.25,-36.27 -66.77,-24.18 -124.06,-58.35 -171.9,-103.03 -47.84,-44.69 -84.63,-97.78 -110.39,-159.28 -25.76,-61.51 -38.9,-130.89 -38.9,-207.64 0,-79.38 12.62,-150.87 37.32,-214.48 24.71,-63.6 59.93,-117.22 105.66,-161.9 45.74,-44.69 100.93,-78.85 166.11,-103.03 64.66,-24.19 138.26,-36.28 219.74,-36.28 80.42,0 152.44,12.09 217.1,36.28 64.13,24.18 118.27,58.87 162.96,104.6 44.68,45.74 78.32,101.98 101.98,167.69 23.65,66.24 35.22,140.88 35.22,223.94l0 35.22 -706.51 0zm897.32 -532.51l335.38 0 0 120.91c45.73,-55.72 92.52,-93.05 139.3,-112.5 46.79,-19.45 101.98,-28.91 165.06,-28.91 66.77,0 123.54,11.04 171.37,32.59 47.84,21.56 88.32,52.57 121.43,92 27.34,32.06 45.74,67.81 55.73,107.23 9.98,39.43 14.71,84.64 14.71,135.63l0 604.52 -335.37 0 0 -480.46c0,-46.79 -3.16,-85.16 -9.99,-114.08 -6.84,-28.91 -18.93,-52.04 -36.27,-69.38 -15.25,-14.72 -32.07,-25.24 -50.47,-31.54 -18.4,-6.31 -38.37,-9.47 -59.4,-9.47 -56.77,0 -100.4,16.83 -130.37,50.99 -30.48,34.17 -45.73,82.53 -45.73,145.62l0 508.32 -335.38 0 0 -951.47zm1231.12 -587.7l335.38 0 0 708.61c45.73,-55.72 92.52,-93.05 139.3,-112.5 46.79,-19.45 101.98,-28.91 165.06,-28.91 119.86,0 210.27,33.12 271.78,99.35 60.98,66.24 91.46,155.6 91.46,268.1l0 604.52 -335.37 0 0 -480.46c0,-47.84 -3.68,-86.74 -11.04,-116.7 -7.89,-29.97 -19.98,-52.57 -37.33,-68.34 -29.96,-26.28 -65.71,-39.43 -107.76,-39.43 -56.77,0 -100.4,16.83 -130.37,50.99 -30.48,34.17 -45.73,82.53 -45.73,145.62l0 508.32 -335.38 0 0 -1539.17zm2022.78 1019.81l-162.95 -465.22 -163.49 465.22 326.44 0zm96.73 276.5l-519.37 0 -83.58 242.86 -387.42 0 531.98 -1398.29 396.88 0 532.51 1398.29 -387.95 0 -83.05 -242.86zm619.14 -708.61l335.38 0 0 156.13c36.27,-57.3 79.9,-100.93 131.94,-131.42 52.05,-29.96 112.5,-45.21 181.36,-45.21 8.94,0 18.4,0 28.91,0 10.52,0 22.61,1.05 36.27,3.68l0 321.19c-44.68,-22.61 -92.51,-33.65 -144.56,-33.65 -77.79,0 -136.14,23.13 -175.04,69.39 -39.43,46.79 -58.88,114.6 -58.88,203.44l0 407.92 -335.38 0 0 -951.47zm1188.14 473.11c0,31.01 5.78,59.4 16.82,86.21 11.04,26.81 26.29,49.94 45.73,69.39 18.93,19.97 41.53,35.22 68.34,46.26 26.81,11.04 55.2,16.82 86.21,16.82 29.97,0 57.83,-5.78 84.64,-16.82 26.8,-11.04 49.41,-26.29 68.86,-46.26 18.92,-19.45 34.17,-42.58 46.26,-69.39 11.56,-26.81 17.35,-54.67 17.35,-84.63 0,-29.44 -5.79,-57.3 -17.35,-83.06 -12.09,-25.76 -27.34,-48.89 -46.26,-68.86 -19.45,-19.45 -42.06,-35.22 -68.86,-46.26 -26.81,-11.04 -54.67,-16.82 -84.64,-16.82 -29.96,0 -57.82,5.78 -84.1,16.82 -26.81,11.04 -49.42,26.81 -68.87,46.26 -19.45,19.97 -34.69,42.58 -46.26,67.81 -12.09,25.23 -17.87,52.57 -17.87,82.53zm423.17 953.04l0 -567.2c-78.33,81.48 -176.63,121.96 -294.91,121.96 -67.81,0 -130.89,-13.14 -189.24,-38.9 -58.35,-25.76 -108.29,-62.03 -150.87,-107.76 -42.58,-45.74 -76.22,-98.83 -100.4,-160.33 -24.18,-60.98 -36.27,-126.17 -36.27,-195.55 0,-71.5 12.62,-138.26 37.32,-200.29 24.71,-61.5 58.35,-115.64 101.98,-161.38 43.11,-45.73 93.57,-81.48 151.92,-107.23 58.35,-25.76 121.43,-38.9 189.24,-38.9 122.49,0 219.21,45.2 291.23,135.09l0 -105.66 337.48 0 0 1426.15 -337.48 0z"/>
  <polygon class="fil1" points="8330.18,9795.94 9782.08,9795.94 9782.08,9463.62 8330.18,9463.62 "/>
  <polygon class="fil1" points="8330.18,10289.94 9782.08,10289.94 9782.08,9957.62 8330.18,9957.62 "/>
  <polygon class="fil1" points="8330.18,10783.97 9782.08,10783.97 9782.08,10451.65 8330.18,10451.65 "/>
  <polygon class="fil1" points="8944.76,8888.5 8639.53,9210.24 9967.67,9210.24 9967.67,10517.77 10314.17,10179.53 10314.17,9210.24 10314.17,8888.5 "/>
  <path class="fil1" d="M12723.07 11881.34c-31.33,-38.18 -69.91,-57.37 -115.93,-57.37 -20.36,0 -39.16,3.72 -56.4,10.96 -17.23,7.44 -32.11,17.43 -44.45,30.16 -12.53,12.73 -22.32,27.81 -29.37,45.24 -7.25,17.42 -10.77,36.42 -10.77,56.59 0,20.76 3.52,39.95 10.77,57.38 7.05,17.42 16.84,32.7 29.57,45.62 12.73,12.93 27.61,23.11 44.65,30.36 17.03,7.44 35.44,11.16 55.22,11.16 43.28,0 82.24,-18.41 116.71,-55.22l0 160.18 -13.71 4.9c-20.76,7.24 -40.14,12.72 -57.96,16.25 -18.02,3.33 -35.84,5.09 -53.27,5.09 -35.83,0 -70.3,-6.85 -103.2,-20.36 -33.09,-13.52 -62.07,-32.71 -87.14,-57.38 -25.06,-24.68 -45.23,-53.85 -60.31,-87.73 -15.28,-33.88 -22.91,-70.69 -22.91,-110.84 0,-40.14 7.44,-76.76 22.52,-110.25 14.88,-33.29 34.85,-62.07 60.11,-86.36 25.07,-24.08 54.25,-43.08 87.34,-56.59 33.1,-13.51 67.95,-20.37 104.18,-20.37 20.76,0 41.12,2.16 61.29,6.47 19.98,4.5 40.93,11.35 63.06,20.56l0 161.55zm192.11 167.83c0,11.94 2.15,22.91 6.66,32.89 4.3,9.99 9.98,18.61 17.23,25.85 7.05,7.44 15.47,13.12 25.46,17.24 9.98,4.11 20.36,6.26 31.52,6.26 10.97,0 21.35,-2.15 31.34,-6.26 9.98,-4.12 18.4,-9.8 25.65,-17.24 7.05,-7.24 12.73,-15.86 17.23,-25.85 4.31,-9.98 6.46,-20.56 6.46,-32.11 0,-11.16 -2.15,-21.54 -6.46,-31.53 -4.5,-9.99 -10.18,-18.6 -17.23,-25.85 -7.25,-7.24 -15.67,-13.12 -25.65,-17.23 -9.99,-4.11 -20.37,-6.27 -31.34,-6.27 -11.16,0 -21.54,2.16 -31.52,6.27 -9.99,4.11 -18.41,9.99 -25.46,17.23 -7.25,7.25 -12.93,15.86 -17.23,25.46 -4.51,9.79 -6.66,20.17 -6.66,31.14zm-131.99 -1.37c0,-26.25 5.29,-50.72 15.86,-73.64 10.58,-22.71 25.27,-42.49 44.26,-59.33 19,-16.84 41.32,-30.16 67.36,-39.75 26.05,-9.6 54.44,-14.49 85.38,-14.49 30.36,0 58.56,4.7 84.6,14.1 26.05,9.59 48.56,22.71 67.76,39.36 18.99,16.84 33.87,36.81 44.45,60.11 10.57,23.31 15.86,49.16 15.86,77.16 0,28 -5.48,53.66 -16.25,76.96 -10.77,23.3 -25.66,43.28 -44.46,60.12 -18.99,16.84 -41.51,29.76 -67.95,38.97 -26.43,9.2 -55.22,13.9 -86.16,13.9 -30.35,0 -58.55,-4.7 -84.2,-13.9 -25.85,-9.21 -48.18,-22.33 -66.78,-39.36 -18.6,-17.04 -33.29,-37.41 -43.87,-61.1 -10.57,-23.7 -15.86,-50.13 -15.86,-79.11zm497.4 -174.09l124.93 0 0 45.04c17.04,-20.76 34.47,-34.66 51.9,-41.91 17.42,-7.25 37.99,-10.77 61.48,-10.77 24.87,0 46.02,4.11 63.84,12.14 17.82,8.03 32.9,19.58 45.24,34.27 10.18,11.95 17.04,25.26 20.76,39.95 3.72,14.69 5.48,31.53 5.48,50.52l0 225.2 -124.94 0 0 -178.98c0,-17.43 -1.17,-31.73 -3.72,-42.5 -2.54,-10.77 -7.05,-19.38 -13.51,-25.85 -5.68,-5.48 -11.94,-9.4 -18.8,-11.75 -6.85,-2.35 -14.29,-3.52 -22.13,-3.52 -21.15,0 -37.4,6.27 -48.56,18.99 -11.36,12.73 -17.04,30.75 -17.04,54.25l0 189.36 -124.93 0 0 -354.44zm693.41 91.25c-22.91,-11.94 -45.63,-18.01 -67.76,-18.01 -11.55,0 -20.75,2.35 -27.8,6.85 -7.25,4.7 -10.77,10.97 -10.77,18.8 0,4.11 0.58,7.24 1.76,9.79 1.17,2.55 3.72,5.09 7.64,7.44 3.91,2.35 9.59,4.5 17.23,6.27 7.64,1.76 17.62,4.11 29.96,6.85 34.66,6.86 60.51,19.19 77.55,36.82 17.03,17.82 25.45,40.53 25.45,68.14 0,20.76 -4.11,39.36 -12.33,56.01 -8.42,16.64 -19.98,30.55 -34.66,41.71 -14.69,11.36 -32.51,20.17 -53.07,26.44 -20.76,6.07 -43.67,9.2 -68.54,9.2 -47.98,0 -95.17,-13.51 -141.58,-40.73l45.62 -88.51c35.06,24.08 68.15,36.03 99.48,36.03 11.56,0 20.96,-2.55 28.4,-7.64 7.24,-5.09 10.96,-11.55 10.96,-19.39 0,-4.5 -0.58,-8.42 -1.76,-11.35 -1.17,-2.94 -3.52,-5.88 -7.24,-8.42 -3.72,-2.55 -9.01,-4.7 -16.26,-6.86 -7.24,-2.15 -16.45,-4.31 -28,-6.46 -38.58,-7.83 -65.6,-19.39 -81.07,-34.86 -15.47,-15.47 -23.3,-36.81 -23.3,-64.03 0,-19.78 3.72,-37.6 11.16,-53.46 7.24,-15.86 17.82,-29.38 31.72,-40.54 13.9,-10.96 30.55,-19.39 50.13,-25.46 19.58,-6.07 41.32,-9 65.21,-9 39.17,0 77.16,7.63 113.97,22.91l-42.1 81.46zm265.93 13.12l0 250.07 -124.93 0 0 -250.07 -41.52 0 0 -104.37 41.52 0 0 -106.34 124.93 0 0 106.34 71.28 0 0 104.37 -71.28 0zm118.29 -104.37l124.93 0 0 58.16c13.51,-21.35 29.77,-37.6 49.15,-48.96 19.39,-11.16 41.91,-16.84 67.56,-16.84 3.33,0 6.86,0 10.77,0 3.92,0 8.42,0.39 13.52,1.37l0 119.65c-16.65,-8.42 -34.47,-12.53 -53.86,-12.53 -28.98,0 -50.71,8.61 -65.21,25.85 -14.68,17.42 -21.93,42.69 -21.93,75.78l0 151.96 -124.93 0 0 -354.44zm446.08 0l0 199.74c0,43.67 21.15,65.6 63.65,65.6 42.29,0 63.44,-21.93 63.44,-65.6l0 -199.74 125.13 0 0 223.82c0,47.98 -15.66,83.82 -47.19,107.71 -31.53,24.08 -78.72,36.03 -141.38,36.03 -62.67,0 -109.67,-11.95 -141.19,-36.03 -31.53,-23.89 -47.39,-59.73 -47.39,-107.71l0 -223.82 124.93 0zm462.15 0l0 354.44 -124.93 0 0 -354.44 124.93 0zm-133.35 -136.1c0,-9.6 1.95,-18.8 5.67,-27.22 3.72,-8.42 8.82,-16.06 15.28,-22.52 6.46,-6.46 13.9,-11.55 22.32,-15.28 8.42,-3.72 17.63,-5.48 27.22,-5.48 9.6,0 18.8,1.76 27.42,5.48 8.42,3.73 16.06,8.82 22.52,15.28 6.46,6.46 11.36,14.1 15.08,22.52 3.72,8.42 5.48,17.62 5.48,27.22 0,9.59 -1.76,18.8 -5.48,27.22 -3.72,8.61 -8.62,16.06 -15.08,22.52 -6.46,6.46 -14.1,11.55 -22.52,15.27 -8.62,3.72 -17.82,5.49 -27.42,5.49 -9.59,0 -18.8,-1.77 -27.22,-5.49 -8.42,-3.72 -15.86,-8.81 -22.32,-15.27 -6.46,-6.46 -11.56,-13.91 -15.28,-22.52 -3.72,-8.42 -5.67,-17.63 -5.67,-27.22zm219.13 136.1l124.93 0 0 45.04c17.04,-20.76 34.47,-34.66 51.9,-41.91 17.42,-7.25 37.99,-10.77 61.48,-10.77 24.87,0 46.02,4.11 63.84,12.14 17.82,8.03 32.9,19.58 45.24,34.27 10.18,11.95 17.04,25.26 20.76,39.95 3.72,14.69 5.48,31.53 5.48,50.52l0 225.2 -124.94 0 0 -178.98c0,-17.43 -1.17,-31.73 -3.72,-42.5 -2.54,-10.77 -7.05,-19.38 -13.51,-25.85 -5.68,-5.48 -11.94,-9.4 -18.8,-11.75 -6.85,-2.35 -14.29,-3.52 -22.13,-3.52 -21.15,0 -37.4,6.27 -48.56,18.99 -11.36,12.73 -17.04,30.75 -17.04,54.25l0 189.36 -124.93 0 0 -354.44zm574.54 176.24c0,11.55 2.16,22.13 6.27,32.11 4.11,9.99 9.79,18.61 17.04,25.85 7.05,7.44 15.47,13.12 25.45,17.24 9.99,4.11 20.57,6.26 32.12,6.26 11.16,0 21.54,-2.15 31.53,-6.26 9.98,-4.12 18.41,-9.8 25.65,-17.24 7.05,-7.24 12.73,-15.86 17.23,-25.45 4.31,-9.6 6.47,-19.98 6.47,-31.14 0,-11.16 -2.16,-21.54 -6.47,-31.53 -4.5,-9.79 -10.18,-18.41 -17.23,-25.85 -7.24,-7.24 -15.67,-13.12 -25.65,-17.23 -9.99,-4.11 -20.37,-6.27 -31.53,-6.27 -11.16,0 -21.54,2.16 -31.33,6.27 -9.99,4.11 -18.41,9.99 -25.66,17.23 -7.24,7.44 -12.92,15.87 -17.23,25.26 -4.5,9.4 -6.66,19.59 -6.66,30.75zm157.64 -395.18l125.72 0 0 573.38 -125.72 0 0 -39.36c-26.82,33.49 -62.86,50.33 -108.48,50.33 -25.85,0 -49.55,-4.9 -71.09,-14.49 -21.73,-9.6 -40.53,-23.11 -56.59,-40.15 -16.26,-17.04 -28.79,-37.01 -37.8,-60.12 -9,-22.91 -13.51,-47.78 -13.51,-74.41 0,-25.26 4.31,-49.35 12.93,-72.26 8.42,-22.72 20.56,-42.69 36.22,-59.73 15.67,-17.03 34.47,-30.55 56.4,-40.53 21.74,-9.79 45.82,-14.69 72.07,-14.69 44.06,0 80.68,15.47 109.85,46.22l0 -254.19zm328.8 394.4c0,11.94 2.15,22.91 6.66,32.89 4.3,9.99 9.98,18.61 17.23,25.85 7.05,7.44 15.47,13.12 25.46,17.24 9.98,4.11 20.36,6.26 31.52,6.26 10.97,0 21.35,-2.15 31.34,-6.26 9.98,-4.12 18.4,-9.8 25.65,-17.24 7.05,-7.24 12.73,-15.86 17.23,-25.85 4.31,-9.98 6.46,-20.56 6.46,-32.11 0,-11.16 -2.15,-21.54 -6.46,-31.53 -4.5,-9.99 -10.18,-18.6 -17.23,-25.85 -7.25,-7.24 -15.67,-13.12 -25.65,-17.23 -9.99,-4.11 -20.37,-6.27 -31.34,-6.27 -11.16,0 -21.54,2.16 -31.52,6.27 -9.99,4.11 -18.41,9.99 -25.46,17.23 -7.25,7.25 -12.93,15.86 -17.23,25.46 -4.51,9.79 -6.66,20.17 -6.66,31.14zm-131.99 -1.37c0,-26.25 5.29,-50.72 15.86,-73.64 10.58,-22.71 25.27,-42.49 44.26,-59.33 19,-16.84 41.32,-30.16 67.36,-39.75 26.05,-9.6 54.44,-14.49 85.38,-14.49 30.36,0 58.56,4.7 84.6,14.1 26.05,9.59 48.56,22.71 67.76,39.36 18.99,16.84 33.87,36.81 44.45,60.11 10.57,23.31 15.86,49.16 15.86,77.16 0,28 -5.48,53.66 -16.25,76.96 -10.77,23.3 -25.66,43.28 -44.46,60.12 -18.99,16.84 -41.51,29.76 -67.95,38.97 -26.43,9.2 -55.22,13.9 -86.16,13.9 -30.35,0 -58.55,-4.7 -84.2,-13.9 -25.85,-9.21 -48.18,-22.33 -66.78,-39.36 -18.6,-17.04 -33.29,-37.41 -43.87,-61.1 -10.57,-23.7 -15.86,-50.13 -15.86,-79.11zm1029.84 -207.19c-14.69,-11.94 -29.37,-20.95 -44.06,-26.63 -14.69,-5.68 -28.98,-8.62 -42.89,-8.62 -17.43,0 -31.72,4.12 -42.88,12.34 -11.16,8.42 -16.65,19.19 -16.65,32.51 0,9.2 2.74,16.84 8.42,22.91 5.49,6.07 12.73,11.16 21.74,15.47 9.01,4.5 19.19,8.22 30.35,11.36 11.16,3.33 22.33,6.66 33.49,10.38 44.26,14.68 76.57,34.46 97.13,59.14 20.56,24.67 30.74,56.78 30.74,96.34 0,26.83 -4.5,50.92 -13.51,72.46 -9.01,21.73 -22.13,40.14 -39.36,55.61 -17.23,15.47 -38.38,27.61 -63.45,36.03 -25.26,8.42 -53.65,12.73 -85.38,12.73 -65.99,0 -126.89,-19.58 -183.09,-58.75l57.96 -109.07c20.17,17.82 40.34,31.14 60.12,39.95 19.78,8.81 39.36,13.12 58.75,13.12 22.12,0 38.57,-5.09 49.34,-15.28 10.77,-9.98 16.26,-21.54 16.26,-34.46 0,-7.83 -1.37,-14.69 -4.11,-20.37 -2.75,-5.68 -7.25,-10.96 -13.71,-15.86 -6.46,-4.9 -14.89,-9.4 -25.26,-13.51 -10.38,-4.11 -23.11,-8.62 -37.8,-13.71 -17.43,-5.48 -34.66,-11.55 -51.3,-18.41 -16.85,-6.65 -31.73,-15.47 -44.85,-26.63 -13.12,-10.97 -23.89,-24.87 -31.92,-41.71 -8.03,-16.84 -12.14,-38.19 -12.14,-63.84 0,-25.85 4.31,-49.35 12.93,-70.3 8.42,-20.95 20.36,-38.77 35.83,-53.85 15.47,-14.88 34.27,-26.44 56.59,-34.86 22.33,-8.22 47.39,-12.34 75.01,-12.34 25.65,0 52.67,3.53 80.87,10.58 28,7.24 55.03,17.62 80.68,31.53l-53.85 105.74zm266.72 208.56c0,11.94 2.15,22.91 6.66,32.89 4.3,9.99 9.98,18.61 17.23,25.85 7.05,7.44 15.47,13.12 25.46,17.24 9.98,4.11 20.36,6.26 31.52,6.26 10.97,0 21.35,-2.15 31.34,-6.26 9.98,-4.12 18.4,-9.8 25.65,-17.24 7.05,-7.24 12.73,-15.86 17.23,-25.85 4.31,-9.98 6.46,-20.56 6.46,-32.11 0,-11.16 -2.15,-21.54 -6.46,-31.53 -4.5,-9.99 -10.18,-18.6 -17.23,-25.85 -7.25,-7.24 -15.67,-13.12 -25.65,-17.23 -9.99,-4.11 -20.37,-6.27 -31.34,-6.27 -11.16,0 -21.54,2.16 -31.52,6.27 -9.99,4.11 -18.41,9.99 -25.46,17.23 -7.25,7.25 -12.93,15.86 -17.23,25.46 -4.51,9.79 -6.66,20.17 -6.66,31.14zm-131.99 -1.37c0,-26.25 5.29,-50.72 15.86,-73.64 10.58,-22.71 25.27,-42.49 44.26,-59.33 19,-16.84 41.32,-30.16 67.36,-39.75 26.05,-9.6 54.44,-14.49 85.38,-14.49 30.36,0 58.56,4.7 84.6,14.1 26.05,9.59 48.56,22.71 67.76,39.36 18.99,16.84 33.87,36.81 44.45,60.11 10.57,23.31 15.86,49.16 15.86,77.16 0,28 -5.48,53.66 -16.25,76.96 -10.77,23.3 -25.66,43.28 -44.46,60.12 -18.99,16.84 -41.51,29.76 -67.95,38.97 -26.43,9.2 -55.22,13.9 -86.16,13.9 -30.35,0 -58.55,-4.7 -84.2,-13.9 -25.85,-9.21 -48.18,-22.33 -66.78,-39.36 -18.6,-17.04 -33.29,-37.41 -43.87,-61.1 -10.57,-23.7 -15.86,-50.13 -15.86,-79.11zm497.4 -174.09l124.93 0 0 45.04c17.04,-20.76 34.47,-34.66 51.9,-41.91 17.42,-7.25 37.99,-10.77 61.48,-10.77 24.87,0 46.02,4.11 63.84,12.14 17.82,8.03 32.9,19.58 45.24,34.27 10.18,11.95 17.04,25.26 20.76,39.95 3.72,14.69 5.48,31.53 5.48,50.52l0 225.2 -124.94 0 0 -178.98c0,-17.43 -1.17,-31.73 -3.72,-42.5 -2.54,-10.77 -7.05,-19.38 -13.51,-25.85 -5.68,-5.48 -11.94,-9.4 -18.8,-11.75 -6.85,-2.35 -14.29,-3.52 -22.13,-3.52 -21.15,0 -37.4,6.27 -48.56,18.99 -11.36,12.73 -17.04,30.75 -17.04,54.25l0 189.36 -124.93 0 0 -354.44zm458.62 -218.94l124.93 0 0 263.98c17.04,-20.76 34.47,-34.66 51.9,-41.91 17.42,-7.25 37.99,-10.77 61.48,-10.77 44.65,0 78.33,12.34 101.25,37.01 22.71,24.67 34.07,57.96 34.07,99.87l0 225.2 -124.94 0 0 -178.98c0,-17.82 -1.37,-32.32 -4.11,-43.48 -2.94,-11.16 -7.44,-19.58 -13.9,-25.45 -11.16,-9.8 -24.48,-14.69 -40.15,-14.69 -21.15,0 -37.4,6.27 -48.56,18.99 -11.36,12.73 -17.04,30.75 -17.04,54.25l0 189.36 -124.93 0 0 -573.38zm576.7 394.4c0,11.94 2.15,22.91 6.66,32.89 4.3,9.99 9.98,18.61 17.23,25.85 7.05,7.44 15.47,13.12 25.46,17.24 9.98,4.11 20.36,6.26 31.52,6.26 10.97,0 21.35,-2.15 31.34,-6.26 9.98,-4.12 18.4,-9.8 25.65,-17.24 7.05,-7.24 12.73,-15.86 17.23,-25.85 4.31,-9.98 6.46,-20.56 6.46,-32.11 0,-11.16 -2.15,-21.54 -6.46,-31.53 -4.5,-9.99 -10.18,-18.6 -17.23,-25.85 -7.25,-7.24 -15.67,-13.12 -25.65,-17.23 -9.99,-4.11 -20.37,-6.27 -31.34,-6.27 -11.16,0 -21.54,2.16 -31.52,6.27 -9.99,4.11 -18.41,9.99 -25.46,17.23 -7.25,7.25 -12.93,15.86 -17.23,25.46 -4.51,9.79 -6.66,20.17 -6.66,31.14zm-131.99 -1.37c0,-26.25 5.29,-50.72 15.86,-73.64 10.58,-22.71 25.27,-42.49 44.26,-59.33 19,-16.84 41.32,-30.16 67.36,-39.75 26.05,-9.6 54.44,-14.49 85.38,-14.49 30.36,0 58.56,4.7 84.6,14.1 26.05,9.59 48.56,22.71 67.76,39.36 18.99,16.84 33.87,36.81 44.45,60.11 10.57,23.31 15.86,49.16 15.86,77.16 0,28 -5.48,53.66 -16.25,76.96 -10.77,23.3 -25.66,43.28 -44.46,60.12 -18.99,16.84 -41.51,29.76 -67.95,38.97 -26.43,9.2 -55.22,13.9 -86.16,13.9 -30.35,0 -58.55,-4.7 -84.2,-13.9 -25.85,-9.21 -48.18,-22.33 -66.78,-39.36 -18.6,-17.04 -33.29,-37.41 -43.87,-61.1 -10.57,-23.7 -15.86,-50.13 -15.86,-79.11zm732.19 -82.84c-22.91,-11.94 -45.63,-18.01 -67.76,-18.01 -11.55,0 -20.75,2.35 -27.8,6.85 -7.25,4.7 -10.77,10.97 -10.77,18.8 0,4.11 0.58,7.24 1.76,9.79 1.17,2.55 3.72,5.09 7.64,7.44 3.91,2.35 9.59,4.5 17.23,6.27 7.64,1.76 17.62,4.11 29.96,6.85 34.66,6.86 60.51,19.19 77.55,36.82 17.03,17.82 25.45,40.53 25.45,68.14 0,20.76 -4.11,39.36 -12.33,56.01 -8.42,16.64 -19.98,30.55 -34.66,41.71 -14.69,11.36 -32.51,20.17 -53.07,26.44 -20.76,6.07 -43.67,9.2 -68.54,9.2 -47.98,0 -95.17,-13.51 -141.58,-40.73l45.62 -88.51c35.06,24.08 68.15,36.03 99.48,36.03 11.56,0 20.96,-2.55 28.4,-7.64 7.24,-5.09 10.96,-11.55 10.96,-19.39 0,-4.5 -0.58,-8.42 -1.76,-11.35 -1.17,-2.94 -3.52,-5.88 -7.24,-8.42 -3.72,-2.55 -9.01,-4.7 -16.26,-6.86 -7.24,-2.15 -16.45,-4.31 -28,-6.46 -38.58,-7.83 -65.6,-19.39 -81.07,-34.86 -15.47,-15.47 -23.3,-36.81 -23.3,-64.03 0,-19.78 3.72,-37.6 11.16,-53.46 7.24,-15.86 17.82,-29.38 31.72,-40.54 13.9,-10.96 30.55,-19.39 50.13,-25.46 19.58,-6.07 41.32,-9 65.21,-9 39.17,0 77.16,7.63 113.97,22.91l-42.1 81.46z"/>
 </g>
</svg>
